name C:\Users\u0101727\Documents\MyRepositories\upper-imu-dc\Results\main_tracking\Case_41\FLX01_linearAccelerations_groundFrame.mot
datacolumns 4
datarows 58
range 5.01000000 5.58000000
endheader 
time	radius_imu_x	radius_imu_y	radius_imu_z	
          5.01000000	          1.29874816	         11.66165862	         -4.22748413	
          5.02000000	          1.35740380	         11.77348538	         -4.18005694	
          5.03000000	          1.46508847	         11.91648878	         -4.16500949	
          5.04000000	          1.50224825	         11.95180925	         -4.05343946	
          5.05000000	          1.55129974	         11.84490024	         -4.09610756	
          5.06000000	          1.53990612	         11.85480651	         -4.13514353	
          5.07000000	          1.80237769	         11.72524780	         -4.43663873	
          5.08000000	          1.62947887	         11.72934306	         -3.98892078	
          5.09000000	          1.46621276	         11.53381891	         -3.81180100	
          5.10000000	          1.13436623	         10.98028120	         -3.64813403	
          5.11000000	          0.57736060	          9.92562472	         -3.80797586	
          5.12000000	          0.81669278	          9.40661248	         -4.05753374	
          5.13000000	          0.59486657	          9.28653612	         -4.31183803	
          5.14000000	          0.46854551	          9.51315942	         -4.21350022	
          5.15000000	          0.35492565	          9.67495016	         -4.17603273	
          5.16000000	          0.22988289	          9.83026409	         -4.10085380	
          5.17000000	          0.09497250	          9.95314237	         -4.02447235	
          5.18000000	         -0.06226341	         10.05070538	         -3.91902514	
          5.19000000	         -0.23365475	         10.12634706	         -3.79850269	
          5.20000000	         -0.41134142	         10.19039665	         -3.66727386	
          5.21000000	         -0.58926150	         10.25259490	         -3.52555988	
          5.22000000	         -0.76197149	         10.32021817	         -3.37374823	
          5.23000000	         -0.92470960	         10.39702881	         -3.21415154	
          5.24000000	         -1.07420311	         10.48314142	         -3.05032312	
          5.25000000	         -1.20895506	         10.57612586	         -2.88594631	
          5.26000000	         -1.32921768	         10.67244475	         -2.72360458	
          5.27000000	         -1.43659942	         10.76775259	         -2.56521346	
          5.28000000	         -1.53446244	         10.85584685	         -2.41274083	
          5.29000000	         -1.62660357	         10.93023895	         -2.26894870	
          5.30000000	         -1.71744846	         10.98552702	         -2.13553579	
          5.31000000	         -1.81044153	         11.01877292	         -2.01374112	
          5.32000000	         -1.90787493	         11.02958860	         -1.90388319	
          5.33000000	         -2.01099066	         11.01976649	         -1.80495010	
          5.34000000	         -2.11965813	         10.99293031	         -1.71488918	
          5.35000000	         -2.23219658	         10.95412204	         -1.63093972	
          5.36000000	         -2.34575518	         10.90910135	         -1.54977656	
          5.37000000	         -2.45709810	         10.86317943	         -1.46802098	
          5.38000000	         -2.56342175	         10.81996137	         -1.38319877	
          5.39000000	         -2.66283580	         10.78077985	         -1.29448419	
          5.40000000	         -2.75441158	         10.74503980	         -1.20278624	
          5.41000000	         -2.83802507	         10.71101556	         -1.11028391	
          5.42000000	         -2.91402572	         10.67670036	         -1.01986193	
          5.43000000	         -2.98299820	         10.64043661	         -0.93450149	
          5.44000000	         -3.04531832	         10.60146959	         -0.85683514	
          5.45000000	         -3.10158494	         10.55933829	         -0.78914958	
          5.46000000	         -3.15205586	         10.51444232	         -0.73293078	
          5.47000000	         -3.19729474	         10.46717681	         -0.68904787	
          5.48000000	         -3.23799843	         10.41815773	         -0.65754756	
          5.49000000	         -3.27470842	         10.36826973	         -0.63792229	
          5.50000000	         -3.30806488	         10.31855690	         -0.62910204	
          5.51000000	         -3.33809829	         10.27017065	         -0.63036747	
          5.52000000	         -3.36456814	         10.22422374	         -0.64132379	
          5.53000000	         -3.38757134	         10.18007739	         -0.66385683	
          5.54000000	         -3.40562269	         10.14036515	         -0.69631862	
          5.55000000	         -3.41234796	         10.11188116	         -0.73387511	
          5.56000000	         -3.41184249	         10.08993152	         -0.77971668	
          5.57000000	         -3.39580476	         10.07992885	         -0.83067987	
          5.58000000	         -3.37399805	         10.07638659	         -0.88584856	
